<?xml version="1.0" encoding="utf-8"?>
<!-- Generator: Adobe Illustrator 23.1.0, SVG Export Plug-In . SVG Version: 6.00 Build 0)  -->
<svg version="1.1" id="Layer_1" xmlns="http://www.w3.org/2000/svg" xmlns:xlink="http://www.w3.org/1999/xlink" x="0px" y="0px"
	 viewBox="0 0 566.93 566.93" style="enable-background:new 0 0 566.93 566.93;" xml:space="preserve">
<style type="text/css">
	.st0{fill:#FFFFFF;}
</style>
<g>
	<g>
		<g>
			<polygon class="st0" points="82.17,127.13 99.16,127.13 103.32,122.97 121.37,122.97 121.37,122.58 103.16,122.58 99,126.74 
				82.17,126.74 			"/>
			<polygon class="st0" points="82.17,125.13 95.14,125.13 102.59,117.68 117.37,117.68 117.37,117.29 102.43,117.29 94.98,124.74 
				82.17,124.74 			"/>
			<rect x="82.25" y="122.74" class="st0" width="12.81" height="0.39"/>
			<rect x="82.54" y="120.74" class="st0" width="4.39" height="0.39"/>
			<polygon class="st0" points="82.68,119.12 87.02,119.12 97.56,108.58 119.78,108.58 138.33,90.02 153.29,90.02 153.29,89.64 
				138.17,89.64 119.62,108.19 97.4,108.19 86.85,118.74 82.68,118.74 			"/>
			<polygon class="st0" points="83.56,111.94 89.83,105.78 118.3,105.78 158.19,65.89 165.42,65.89 169.96,61.35 179.88,61.35 
				179.88,60.96 169.8,60.96 165.26,65.5 158.03,65.5 118.14,105.39 89.67,105.39 83.29,111.66 			"/>
			<polygon class="st0" points="86.42,103.35 116.8,103.35 149.32,70.83 149.05,70.55 116.64,102.96 86.42,102.96 			"/>
			<polygon class="st0" points="90.77,100.77 115.92,100.77 139.2,77.49 138.92,77.22 115.76,100.38 90.77,100.38 			"/>
			<polygon class="st0" points="88.69,98.04 116.64,98.04 151.35,63.32 162.98,63.32 172.58,53.72 186.8,53.72 186.8,53.34 
				172.42,53.34 162.82,62.94 151.19,62.94 116.48,97.65 88.69,97.65 			"/>
			<polygon class="st0" points="91.36,95.3 117.36,95.3 140.64,72.02 140.37,71.75 117.2,94.91 91.36,94.91 			"/>
			<polygon class="st0" points="92.52,92.57 118.09,92.57 141.36,69.29 141.09,69.01 117.93,92.18 92.52,92.18 			"/>
			<polygon class="st0" points="79.42,181.28 79.81,181.28 79.81,176.15 75.5,171.84 69.81,171.84 66.08,168.11 66.08,165.46 
				65.69,165.46 65.69,168.27 69.65,172.23 75.34,172.23 79.42,176.31 			"/>
			<polygon class="st0" points="85.1,188.49 85.38,188.22 82.09,184.94 79.7,184.94 79.7,185.32 81.93,185.32 			"/>
			<polygon class="st0" points="80.88,198.08 81.26,198.08 81.26,193.22 84.22,190.27 88.36,190.27 88.36,189.88 84.06,189.88 
				80.88,193.06 			"/>
			<polygon class="st0" points="82.6,212.88 82.99,212.88 82.99,210.24 84.83,208.41 84.83,202.69 82.15,200.02 81.88,200.29 
				84.44,202.85 84.44,208.25 82.6,210.08 			"/>
			<polygon class="st0" points="85.24,214.57 104.4,214.57 111.06,207.91 110.79,207.64 104.24,214.18 85.24,214.18 			"/>
			<polygon class="st0" points="83.35,216.45 104.68,216.45 111.86,209.27 111.59,209 104.52,216.06 83.35,216.06 			"/>
			<polygon class="st0" points="85.43,218.17 105.12,218.17 112.66,210.63 112.39,210.36 104.96,217.79 85.43,217.79 			"/>
			<polygon class="st0" points="88.09,220.28 105.17,220.28 113.47,211.99 113.19,211.71 105.01,219.89 88.09,219.89 			"/>
			<polygon class="st0" points="84.24,167.86 84.51,167.58 79.49,162.56 67.69,162.56 67.69,162.94 79.32,162.94 			"/>
			<rect x="70.09" y="160.1" class="st0" width="11.68" height="0.39"/>
			<rect x="71.84" y="157.76" class="st0" width="8.04" height="0.39"/>
			<polygon class="st0" points="79.39,145.99 82.62,142.77 82.62,137.25 82.23,137.25 82.23,142.61 79.12,145.72 			"/>
			<polygon class="st0" points="97.33,134.82 97.61,134.55 94.37,131.31 82.86,131.31 82.86,131.7 94.21,131.7 			"/>
			<rect x="83.42" y="134.17" class="st0" width="9.07" height="0.39"/>
			<polygon class="st0" points="101.69,144.11 101.97,143.84 94.6,136.47 88.05,136.47 85.81,138.71 86.09,138.99 88.21,136.86 
				94.44,136.86 			"/>
			<polygon class="st0" points="90.72,149.44 94.89,149.44 97.61,146.72 97.33,146.45 94.73,149.05 90.72,149.05 			"/>
			<polygon class="st0" points="94.27,89.99 113.32,70.94 113.05,70.66 93.99,89.72 			"/>
			<polygon class="st0" points="97.95,89.99 126.62,61.33 140.67,61.33 140.67,60.94 126.46,60.94 97.68,89.72 			"/>
			<polygon class="st0" points="101.64,89.99 124.71,66.93 124.43,66.65 101.37,89.72 			"/>
			<polygon class="st0" points="105.33,89.99 130.58,64.74 144.79,64.74 149.31,60.22 158.74,60.22 178.54,40.42 178.26,40.14 
				158.58,59.83 149.15,59.83 144.63,64.35 130.42,64.35 105.05,89.72 			"/>
			<polygon class="st0" points="109.01,89.99 131.67,67.34 131.39,67.06 108.74,89.72 			"/>
			<polygon class="st0" points="112.7,89.99 131.75,70.94 131.48,70.66 112.42,89.72 			"/>
			<polygon class="st0" points="116.38,89.99 139.2,67.17 138.93,66.9 116.11,89.72 			"/>
			<polygon class="st0" points="75.54,153.23 85.68,143.09 85.41,142.81 75.26,152.96 			"/>
			<polygon class="st0" points="73.6,155.93 81.84,155.93 86.96,150.81 86.69,150.54 81.68,155.55 73.6,155.55 			"/>
			<polygon class="st0" points="80.96,154.33 87.11,148.18 86.84,147.9 80.69,154.06 			"/>
			<polygon class="st0" points="78.41,153.6 86.38,145.62 86.11,145.35 78.14,153.32 			"/>
			<polygon class="st0" points="84.09,116.67 92.63,108.12 92.36,107.85 83.81,116.39 			"/>
			<polygon class="st0" points="97.47,143.09 97.75,142.81 93.34,138.41 93.07,138.68 			"/>
			<polygon class="st0" points="84.43,172.32 84.71,172.05 78.57,165.91 70.3,165.91 70.3,166.3 78.41,166.3 			"/>
			<rect x="71.82" y="169.34" class="st0" width="6.77" height="0.39"/>
			<polygon class="st0" points="89.69,188.54 99.92,188.54 99.92,188.15 89.85,188.15 82.75,181.06 82.48,181.33 			"/>
			<polygon class="st0" points="90.38,185.84 107.05,185.84 107.05,185.45 90.54,185.45 81.6,176.51 81.6,172.24 81.21,172.24 
				81.21,176.67 			"/>
			<polygon class="st0" points="95.59,174.17 117.04,174.17 117.04,173.78 95.75,173.78 85.68,163.71 85.68,158.43 90.76,153.34 
				90.49,153.07 85.29,158.27 85.29,163.87 			"/>
			<polygon class="st0" points="94.49,176.88 119.48,176.88 128.98,167.38 128.71,167.11 119.32,176.49 94.65,176.49 87.63,169.47 
				87.36,169.74 			"/>
			<polygon class="st0" points="94.49,179.85 119.48,179.85 128.93,170.41 163.52,170.41 163.52,170.02 128.76,170.02 
				119.32,179.46 94.65,179.46 87.63,172.44 87.36,172.72 			"/>
			<polygon class="st0" points="92.96,182.82 119.48,182.82 128.98,173.33 128.71,173.05 119.32,182.44 93.12,182.44 86.1,175.41 
				85.82,175.69 			"/>
			<polygon class="st0" points="88.66,152.08 96.98,152.08 101.97,147.1 101.69,146.82 96.82,151.7 88.66,151.7 			"/>
			<polygon class="st0" points="96.94,171.51 97.22,171.24 89.49,163.51 89.49,158.67 92.52,155.63 92.25,155.36 89.1,158.51 
				89.1,163.67 			"/>
			<polygon class="st0" points="94.75,155.38 99.79,155.38 108.27,146.9 108.27,142.87 102.85,137.45 102.58,137.72 107.89,143.03 
				107.89,146.74 99.63,154.99 94.75,154.99 			"/>
			<polygon class="st0" points="104.88,143.63 105.15,143.36 98.95,137.16 102.69,133.42 102.69,128.74 81.9,128.74 81.9,129.13 
				102.3,129.13 102.3,133.26 98.4,137.16 			"/>
			<polygon class="st0" points="90.3,121.07 99.19,112.18 119.77,112.18 127.18,119.6 152.71,119.6 152.71,119.21 127.35,119.21 
				119.93,111.79 99.03,111.79 90.03,120.79 			"/>
			<polygon class="st0" points="124.72,121.47 140.51,121.47 140.51,121.08 124.88,121.08 118.27,114.47 100.41,114.47 
				94.09,120.79 94.37,121.07 100.58,114.86 118.11,114.86 			"/>
			<polygon class="st0" points="98.82,125.03 103.33,120.53 118.8,120.53 118.8,120.14 103.16,120.14 98.55,124.76 			"/>
			<polygon class="st0" points="93.19,159.23 100.38,159.23 111.45,148.16 130.93,148.16 130.93,147.77 111.29,147.77 
				100.22,158.84 93.19,158.84 			"/>
			<polygon class="st0" points="93.19,162.64 100.78,162.64 112.29,151.12 134.88,151.12 134.88,150.74 112.13,150.74 
				100.62,162.25 93.19,162.25 			"/>
			<path class="st0" d="M114.67,171.58c5.6,0,5.65-0.05,5.71-0.11l6.75-6.75h14.98v-0.39h-15.14l-6.82,6.82
				c-0.98,0.07-13.61,0.02-18.61-0.01l-6.65-6.65l-0.27,0.27l6.76,6.76h0.08C107.7,171.56,111.87,171.58,114.67,171.58z"/>
			<polygon class="st0" points="103.24,169.37 119.1,169.37 126.28,162.19 146.38,162.19 146.38,161.81 126.11,161.81 
				118.94,168.98 103.4,168.98 99.14,164.72 98.86,164.99 			"/>
			<polygon class="st0" points="103.66,165.78 118.5,165.78 124.69,159.6 147.6,159.6 147.6,159.21 124.53,159.21 118.34,165.39 
				103.66,165.39 			"/>
			<polygon class="st0" points="105.15,163.16 114.02,154.29 147.12,154.29 147.12,153.9 113.86,153.9 104.88,162.88 			"/>
			<polygon class="st0" points="108.85,162.69 116.73,162.69 122.26,157.16 146.38,157.16 146.38,156.77 122.1,156.77 116.57,162.3 
				108.85,162.3 			"/>
			<polygon class="st0" points="113.01,160.7 116.88,156.82 116.6,156.55 112.73,160.42 			"/>
			<rect x="110.6" y="143.9" class="st0" width="53.78" height="0.39"/>
			<polygon class="st0" points="111.07,141.36 162.76,141.36 162.76,140.97 111.23,140.97 104.82,134.55 104.54,134.82 			"/>
			<polygon class="st0" points="131.58,132.14 162.41,132.14 162.41,131.75 131.74,131.75 124.92,124.93 104.55,124.93 
				102.36,127.13 102.63,127.4 104.71,125.32 124.76,125.32 			"/>
			<polygon class="st0" points="128.56,135.08 162.76,135.08 162.76,134.69 128.72,134.69 122.77,128.74 105.31,128.74 
				105.31,129.13 122.61,129.13 			"/>
			<polygon class="st0" points="126.56,138.78 167.34,138.78 167.34,138.39 126.72,138.39 120.9,132.57 107,132.57 107,132.96 
				120.74,132.96 			"/>
			<polygon class="st0" points="112.7,138.64 122.25,138.64 122.25,138.25 112.86,138.25 109.36,134.75 109.08,135.02 			"/>
			<rect x="113.27" y="135.48" class="st0" width="6.44" height="0.39"/>
			<polygon class="st0" points="123.14,110.53 139.65,94.02 166.86,94.02 166.86,93.63 139.49,93.63 122.87,110.25 			"/>
			<polygon class="st0" points="138.38,116.42 149.9,116.42 149.9,116.03 138.54,116.03 129.95,107.43 129.67,107.71 			"/>
			<polygon class="st0" points="132.87,116.48 133.14,116.21 126.79,109.86 126.52,110.14 			"/>
			<rect x="129.46" y="125.25" class="st0" width="44.28" height="0.39"/>
			<rect x="132.71" y="128.34" class="st0" width="43.42" height="0.39"/>
			<polygon class="st0" points="83.08,196.78 87.27,192.59 87,192.32 82.81,196.51 			"/>
			<polygon class="st0" points="88.38,208.45 100.16,208.45 100.16,208.06 88.77,208.06 88.77,203.46 85,199.69 87.32,197.36 
				87.05,197.09 84.45,199.69 88.38,203.62 			"/>
			<polygon class="st0" points="85.07,212.96 87.73,210.3 102.07,210.3 110.01,202.37 128.18,202.37 128.18,201.98 109.85,201.98 
				101.91,209.92 87.57,209.92 84.79,212.69 			"/>
			<polygon class="st0" points="87.78,213.05 89.03,211.8 102.94,211.8 110.55,204.19 130.38,204.19 130.38,203.8 110.39,203.8 
				102.78,211.41 88.87,211.41 87.5,212.78 			"/>
			<polygon class="st0" points="90.31,213.3 103.88,213.3 111.23,205.95 130.2,205.95 130.2,205.57 111.07,205.57 103.72,212.92 
				90.31,212.92 			"/>
			<polygon class="st0" points="110.39,217.79 117.59,210.59 114.27,207.27 113.99,207.55 117.04,210.59 110.12,217.52 			"/>
			<polygon class="st0" points="115.15,216.54 121.24,210.45 118.1,207.3 117.82,207.58 120.69,210.45 114.88,216.26 			"/>
			<polygon class="st0" points="135.84,222.25 162.97,222.25 162.97,221.87 136,221.87 129.68,215.54 118.42,215.54 118.42,215.93 
				129.52,215.93 			"/>
			<polygon class="st0" points="137.99,219.81 161.44,219.81 161.44,219.42 138.15,219.42 132.32,213.6 120.5,213.6 120.5,213.99 
				132.16,213.99 			"/>
			<rect x="121.18" y="207.83" class="st0" width="59.4" height="0.39"/>
			<rect x="123.29" y="210.3" class="st0" width="28.52" height="0.39"/>
			<polygon class="st0" points="139.84,217.36 160.46,217.36 160.46,216.97 140,216.97 136.01,212.97 135.73,213.25 			"/>
			<polygon class="st0" points="142.01,215.11 160.12,215.11 160.12,214.72 142.17,214.72 140.43,212.97 140.15,213.25 			"/>
			<polygon class="st0" points="94.15,206.22 102.13,206.22 108.45,199.9 129.77,199.9 129.77,199.51 108.29,199.51 101.97,205.83 
				94.31,205.83 88.5,200.02 88.22,200.29 			"/>
			<polygon class="st0" points="96.35,203.34 101.32,203.34 106.81,197.85 128.6,197.85 128.6,197.46 106.65,197.46 101.16,202.95 
				96.51,202.95 88.8,195.24 88.53,195.52 			"/>
			<polygon class="st0" points="91.13,193.42 93.65,190.9 108.01,190.9 113.07,185.84 121.72,185.84 131.07,176.5 140.63,176.5 
				140.63,176.11 130.91,176.11 121.56,185.46 112.9,185.46 107.85,190.51 93.48,190.51 90.85,193.15 			"/>
			<polygon class="st0" points="93.32,196.06 96.25,193.14 109.88,193.14 114.83,188.18 168.63,188.18 168.63,187.79 114.67,187.79 
				109.72,192.75 96.09,192.75 93.05,195.78 			"/>
			<polygon class="st0" points="95.07,199.07 98.59,195.56 112.89,195.56 117.1,191.35 170.81,191.35 170.81,190.96 116.94,190.96 
				112.73,195.17 98.43,195.17 94.8,198.8 			"/>
			<polygon class="st0" points="98.15,201.45 101.82,197.78 101.55,197.51 97.88,201.17 			"/>
			<rect x="77.4" y="188.38" class="st0" width="3.98" height="0.39"/>
			<polygon class="st0" points="118.13,195.52 119.99,193.66 153.37,193.66 153.37,193.27 119.83,193.27 117.85,195.24 			"/>
			<polygon class="st0" points="127.27,185.78 133.22,179.84 132.94,179.56 127,185.51 			"/>
			<rect x="132" y="185.45" class="st0" width="25.32" height="0.39"/>
			<rect x="134.16" y="182.59" class="st0" width="39.51" height="0.39"/>
			<rect x="133" y="105.25" class="st0" width="28.12" height="0.39"/>
			<polygon class="st0" points="135.44,103.29 141.31,97.42 169.25,97.42 169.25,97.03 141.15,97.03 135.16,103.02 			"/>
			<polygon class="st0" points="140.99,103.29 143.65,100.64 166.15,100.64 166.15,100.25 143.49,100.25 140.72,103.02 			"/>
			<rect x="135.3" y="108.09" class="st0" width="24.8" height="0.39"/>
			<rect x="139.06" y="112.98" class="st0" width="10.17" height="0.39"/>
		</g>
		<polygon class="st0" points="140.11,230.56 156.4,230.56 156.4,230.18 140.27,230.18 127.78,217.68 119.99,217.68 115.9,221.76 
			110.27,221.76 110.27,222.15 116.06,222.15 120.15,218.07 127.61,218.07 		"/>
		<polygon class="st0" points="108.88,220.15 114.73,220.15 117.09,217.79 116.81,217.52 114.57,219.76 108.88,219.76 		"/>
		<polygon class="st0" points="143.01,238.15 143.28,237.87 126.39,220.98 120.5,220.98 120.5,221.37 126.23,221.37 		"/>
		<polygon class="st0" points="142.99,57.62 156.35,57.62 173.57,40.4 173.3,40.13 156.19,57.23 142.99,57.23 		"/>
		<g>
			<polygon class="st0" points="310.64,80.2 190.67,80.2 155.12,115.76 155.12,125.9 155.63,125.9 155.63,115.97 190.89,80.72 
				310.64,80.72 			"/>
			<polygon class="st0" points="310.64,81.76 191.32,81.76 156.67,116.4 156.67,125.9 157.19,125.9 157.19,116.62 191.53,82.27 
				310.64,82.27 			"/>
			<polygon class="st0" points="310.64,83.31 191.96,83.31 158.22,117.05 158.22,125.9 158.74,125.9 158.74,117.26 192.17,83.83 
				310.64,83.83 			"/>
			<polygon class="st0" points="310.64,84.86 192.6,84.86 159.77,117.69 159.77,125.9 160.29,125.9 160.29,117.9 192.81,85.38 
				310.64,85.38 			"/>
			<polygon class="st0" points="310.64,86.41 193.24,86.41 161.32,118.33 161.32,125.9 161.84,125.9 161.84,118.55 193.46,86.93 
				310.64,86.93 			"/>
			<polygon class="st0" points="310.64,87.96 193.89,87.96 162.87,118.97 162.87,125.9 163.39,125.9 163.39,119.19 194.1,88.48 
				310.64,88.48 			"/>
			<polygon class="st0" points="310.64,89.51 194.53,89.51 164.43,119.62 164.43,125.9 164.94,125.9 164.94,119.83 194.74,90.03 
				310.64,90.03 			"/>
			<polygon class="st0" points="310.64,91.07 195.17,91.07 165.98,120.26 165.98,125.9 166.5,125.9 166.5,120.47 195.39,91.58 
				310.64,91.58 			"/>
			<polygon class="st0" points="310.64,92.62 195.81,92.62 167.53,120.9 167.53,125.9 168.05,125.9 168.05,121.12 196.03,93.14 
				310.64,93.14 			"/>
			<polygon class="st0" points="310.64,94.17 196.46,94.17 169.08,121.55 169.08,125.9 169.6,125.9 169.6,121.76 196.67,94.69 
				310.64,94.69 			"/>
			<g>
				<polygon class="st0" points="318.15,44.99 198.19,44.99 162.63,80.55 162.63,93.64 163.15,93.64 163.15,80.76 198.4,45.51 
					318.15,45.51 				"/>
				<polygon class="st0" points="318.15,46.54 198.83,46.54 164.18,81.19 164.18,93.64 164.7,93.64 164.7,81.4 199.04,47.06 
					318.15,47.06 				"/>
				<polygon class="st0" points="318.15,48.1 199.47,48.1 165.73,81.83 165.73,93.64 166.25,93.64 166.25,82.05 199.69,48.61 
					318.15,48.61 				"/>
				<polygon class="st0" points="318.15,49.65 200.11,49.65 167.29,82.48 167.29,93.64 167.8,93.64 167.8,82.69 200.33,50.16 
					318.15,50.16 				"/>
				<polygon class="st0" points="318.15,52.75 201.4,52.75 170.39,83.76 170.39,89.8 170.91,89.8 170.91,83.98 201.61,53.27 
					318.15,53.27 				"/>
				<polygon class="st0" points="318.15,54.3 202.04,54.3 171.94,84.4 171.94,89.8 172.46,89.8 172.46,84.62 202.26,54.82 
					318.15,54.82 				"/>
				<polygon class="st0" points="318.15,55.85 202.69,55.85 173.49,85.05 173.49,89.8 174.01,89.8 174.01,85.26 202.9,56.37 
					318.15,56.37 				"/>
				<polygon class="st0" points="318.15,57.41 203.33,57.41 175.04,85.69 175.04,89.8 175.56,89.8 175.56,85.9 203.54,57.92 
					318.15,57.92 				"/>
			</g>
			<g>
				<polygon class="st0" points="188.34,206.02 169.02,206.02 169.02,206.53 188.12,206.53 197.04,215.44 197.04,254.12 
					225.7,282.78 280,282.78 280,282.27 225.91,282.27 197.55,253.91 197.55,215.23 				"/>
				<polygon class="st0" points="188.98,204.46 158.67,204.46 158.67,204.98 188.77,204.98 198.59,214.8 198.59,242.03 
					226.34,269.78 280,269.78 280,269.26 226.55,269.26 199.1,241.81 199.1,214.59 				"/>
				<polygon class="st0" points="189.62,202.91 158.67,202.91 158.67,203.43 189.41,203.43 200.14,214.16 200.14,241.38 
					226.98,268.23 280,268.23 280,267.71 227.2,267.71 200.66,241.17 200.66,213.95 				"/>
				<polygon class="st0" points="190.27,201.36 127.64,201.36 127.64,201.88 190.05,201.88 201.69,213.52 201.69,240.74 
					227.62,266.67 280,266.67 280,266.16 227.84,266.16 202.21,240.53 202.21,213.3 				"/>
				<polygon class="st0" points="190.91,199.81 127.64,199.81 127.64,200.33 190.7,200.33 203.24,212.87 203.24,240.1 
					228.27,265.12 280,265.12 280,264.6 228.48,264.6 203.76,239.88 203.76,212.66 				"/>
				<polygon class="st0" points="191.55,198.26 127.64,198.26 127.64,198.78 191.34,198.78 204.79,212.23 204.79,239.45 
					228.91,263.57 280,263.57 280,263.05 229.12,263.05 205.31,239.24 205.31,212.02 				"/>
				<polygon class="st0" points="192.2,196.71 158.67,196.71 158.67,197.22 191.98,197.22 206.35,211.59 206.35,238.81 
					229.55,262.02 280,262.02 280,261.5 229.77,261.5 206.86,238.6 206.86,211.37 				"/>
				<polygon class="st0" points="192.84,195.15 158.67,195.15 158.67,195.67 192.62,195.67 207.9,210.95 207.9,238.17 230.2,260.47 
					280,260.47 280,259.95 230.41,259.95 208.41,237.96 208.41,210.73 				"/>
				<polygon class="st0" points="193.48,193.6 169.02,193.6 169.02,194.12 193.27,194.12 209.45,210.3 209.45,226.91 230.84,248.3 
					280,248.3 280,247.78 231.05,247.78 209.97,226.69 209.97,210.09 				"/>
			</g>
			<polyline class="st0" points="246.22,154.95 235.33,154.95 224.44,165.84 200.61,165.84 189.72,154.95 150.78,154.95 
				150.78,155.47 189.5,155.47 200.39,166.36 224.65,166.36 235.54,155.47 246.43,155.47 			"/>
			<polyline class="st0" points="245.58,153.4 234.69,153.4 223.8,164.29 201.25,164.29 190.36,153.4 150.78,153.4 150.78,153.92 
				190.15,153.92 201.04,164.81 224.01,164.81 234.9,153.92 245.79,153.92 			"/>
			<polyline class="st0" points="244.93,151.85 234.04,151.85 223.16,162.74 201.89,162.74 191,151.85 150.78,151.85 150.78,152.37 
				190.79,152.37 201.68,163.26 223.37,163.26 234.26,152.37 245.15,152.37 			"/>
			<polyline class="st0" points="244.29,150.3 233.4,150.3 222.51,161.19 202.54,161.19 191.65,150.3 150.78,150.3 150.78,150.81 
				191.43,150.81 202.32,161.7 222.73,161.7 233.62,150.81 244.51,150.81 			"/>
			<polyline class="st0" points="243.65,148.75 232.76,148.75 221.87,159.64 203.18,159.64 192.29,148.75 150.78,148.75 
				150.78,149.26 192.07,149.26 202.96,160.15 222.08,160.15 232.97,149.26 243.86,149.26 			"/>
			<polyline class="st0" points="243.01,147.19 232.12,147.19 221.23,158.08 203.82,158.08 192.93,147.19 150.78,147.19 
				150.78,147.71 192.72,147.71 203.61,158.6 221.44,158.6 232.33,147.71 243.22,147.71 			"/>
			<polyline class="st0" points="242.36,145.64 231.47,145.64 220.58,156.53 204.46,156.53 193.57,145.64 150.78,145.64 
				150.78,146.16 193.36,146.16 204.25,157.05 220.8,157.05 231.69,146.16 242.58,146.16 			"/>
			<g>
				<polygon class="st0" points="180.58,207.71 180.06,207.71 180.06,211.63 169.32,222.37 166.27,222.37 166.27,222.89 
					169.54,222.89 180.58,211.84 				"/>
				<polygon class="st0" points="182.41,207.71 181.9,207.71 181.9,213.47 171.16,224.21 166.27,224.21 166.27,224.72 
					171.37,224.72 182.41,213.68 				"/>
				<polygon class="st0" points="184.25,207.71 183.73,207.71 183.73,215.3 173,226.04 166.27,226.04 166.27,226.56 173.21,226.56 
					184.25,215.52 				"/>
				<polygon class="st0" points="186.09,207.71 185.57,207.71 185.57,217.14 174.83,227.88 166.27,227.88 166.27,228.4 
					175.05,228.4 186.09,217.36 				"/>
			</g>
			<polygon class="st0" points="182.34,270.99 182.86,270.99 182.86,252.23 194.16,240.93 194.16,234.55 184.33,224.72 
				183.96,225.09 193.64,234.76 193.64,240.72 182.34,252.02 			"/>
			<polygon class="st0" points="180.7,269.35 181.22,269.35 181.22,250.59 191.03,240.78 191.03,234.4 182.84,226.21 182.48,226.58 
				190.51,234.61 190.51,240.57 180.7,250.38 			"/>
			<polygon class="st0" points="179.07,267.71 179.58,267.71 179.58,248.95 187.96,240.58 187.96,234.2 181.41,227.65 
				181.04,228.01 187.44,234.41 187.44,240.36 179.07,248.74 			"/>
			<polygon class="st0" points="195.91,132.4 174.02,132.4 174.02,132.92 195.7,132.92 208.13,145.35 229.84,145.35 229.84,144.83 
				208.34,144.83 			"/>
			<polygon class="st0" points="197.29,130.9 175.4,130.9 175.4,131.41 197.07,131.41 209.5,143.84 229.84,143.84 229.84,143.33 
				209.72,143.33 			"/>
			<polygon class="st0" points="198.67,129.39 176.78,129.39 176.78,129.91 198.45,129.91 210.88,142.34 229.84,142.34 
				229.84,141.82 211.1,141.82 			"/>
			<polygon class="st0" points="200.04,127.89 176.31,127.89 176.31,128.41 199.83,128.41 212.26,140.84 229.84,140.84 
				229.84,140.32 212.47,140.32 			"/>
			<polygon class="st0" points="201.42,126.39 176.31,126.39 176.31,126.9 201.21,126.9 213.64,139.33 229.84,139.33 229.84,138.82 
				213.85,138.82 			"/>
			<polygon class="st0" points="262.31,101.41 214.84,101.41 214.84,136.88 215.36,136.88 215.36,101.93 262.31,101.93 			"/>
			<polygon class="st0" points="262.31,99.27 212.7,99.27 212.7,134.75 213.22,134.75 213.22,99.79 262.31,99.79 			"/>
			<polygon class="st0" points="262.31,97.14 210.57,97.14 210.57,132.61 211.08,132.61 211.08,97.65 262.31,97.65 			"/>
			<polygon class="st0" points="218.48,121.23 224.61,121.23 224.61,120.71 219,120.71 219,104.64 218.48,104.64 			"/>
			<polygon class="st0" points="218.48,134.16 219,134.16 219,124.4 224.61,124.4 224.61,123.89 218.48,123.89 			"/>
			<polygon class="st0" points="251.08,109.79 229.19,109.79 220.95,118.03 221.31,118.4 229.41,110.31 251.08,110.31 			"/>
			<polygon class="st0" points="251.08,107.8 228.4,107.8 220.88,115.32 221.25,115.68 228.61,108.32 251.08,108.32 			"/>
			<polygon class="st0" points="251.08,105.82 227.61,105.82 220.92,112.5 221.28,112.87 227.82,106.33 251.08,106.33 			"/>
			<polygon class="st0" points="251.08,103.83 226.81,103.83 220.96,109.68 221.33,110.04 227.03,104.35 251.08,104.35 			"/>
			<rect x="244.19" y="267.08" class="st0" width="18.73" height="0.52"/>
			<rect x="244.19" y="268.79" class="st0" width="18.73" height="0.52"/>
			<g>
				<polygon class="st0" points="221.47,216.45 221.47,200.43 209.67,188.62 209.31,188.99 220.96,200.64 220.96,216.45 				"/>
				<polygon class="st0" points="220.04,216.45 220.04,201.86 208.24,190.06 207.88,190.42 219.53,202.07 219.53,216.45 				"/>
				<polygon class="st0" points="218.61,216.45 218.61,203.29 206.81,191.49 206.44,191.85 218.09,203.5 218.09,216.45 				"/>
				<polygon class="st0" points="217.18,216.45 217.18,204.72 205.38,192.92 205.01,193.28 216.66,204.93 216.66,216.45 				"/>
				<polygon class="st0" points="215.75,216.45 215.75,206.15 203.95,194.35 203.58,194.71 215.23,206.36 215.23,216.45 				"/>
				<polygon class="st0" points="214.32,216.45 214.32,207.58 202.52,195.78 202.15,196.15 213.8,207.8 213.8,216.45 				"/>
				<polygon class="st0" points="246.05,240.39 246.05,207.21 235.66,196.82 221.25,196.82 212.26,187.83 211.89,188.19 
					221.04,197.34 235.45,197.34 245.53,207.42 245.53,240.39 				"/>
				<polygon class="st0" points="243.43,243.01 243.43,209.83 233.04,199.45 223.24,199.45 223.24,199.96 232.83,199.96 
					242.91,210.04 242.91,243.01 				"/>
				<polygon class="st0" points="241.58,244.86 241.58,211.67 231.2,201.29 223.24,201.29 223.24,201.81 230.98,201.81 
					241.07,211.89 241.07,244.86 				"/>
				<polygon class="st0" points="239.74,246.7 239.74,213.52 229.35,203.14 223.24,203.14 223.24,203.65 229.14,203.65 
					239.22,213.73 239.22,246.7 				"/>
				<polygon class="st0" points="247.41,240.39 247.41,205.85 237.03,195.46 222.61,195.46 214.99,187.84 214.62,188.2 
					222.4,195.98 236.81,195.98 246.89,206.06 246.89,240.39 				"/>
				<polygon class="st0" points="248.77,240.39 248.77,204.48 238.39,194.1 223.97,194.1 217.7,187.83 217.34,188.19 223.76,194.62 
					238.17,194.62 248.26,204.7 248.26,240.39 				"/>
				<polygon class="st0" points="250.13,240.39 250.13,203.12 239.75,192.74 225.34,192.74 220.43,187.84 220.07,188.2 
					225.12,193.26 239.54,193.26 249.62,203.34 249.62,240.39 				"/>
				<polygon class="st0" points="251.5,240.39 251.5,201.76 241.11,191.38 226.7,191.38 223.15,187.83 222.78,188.19 226.48,191.89 
					240.9,191.89 250.98,201.98 250.98,240.39 				"/>
			</g>
			<rect x="164.39" y="245.48" class="st0" width="14.66" height="0.52"/>
			<rect x="160.75" y="242.44" class="st0" width="14.66" height="0.52"/>
			<rect x="160.75" y="239.4" class="st0" width="14.66" height="0.52"/>
			<rect x="255.12" y="231.36" class="st0" width="22.05" height="0.52"/>
			<rect x="255.12" y="228.32" class="st0" width="22.05" height="0.52"/>
			<rect x="240.11" y="239.85" class="st0" width="37.05" height="0.52"/>
			<rect x="164.39" y="236.35" class="st0" width="14.66" height="0.52"/>
			<rect x="160.75" y="233.31" class="st0" width="14.66" height="0.52"/>
			<g>
				<polygon class="st0" points="176.19,179.8 154.31,179.8 154.31,180.32 175.97,180.32 181.42,185.77 192.31,185.77 
					197.83,191.29 198.2,190.92 192.53,185.25 181.64,185.25 				"/>
				<polygon class="st0" points="192.6,182.85 192.24,183.22 203.12,194.11 203.49,193.74 				"/>
				<rect x="148.17" y="177.33" class="st0" width="27.91" height="0.52"/>
				<polygon class="st0" points="192.6,180.38 192.24,180.74 203.12,191.63 203.49,191.27 				"/>
				<rect x="148.17" y="174.85" class="st0" width="27.91" height="0.52"/>
				<polygon class="st0" points="176.19,172.38 154.31,172.38 154.31,172.9 175.97,172.9 181.42,178.34 192.31,178.34 
					197.83,183.86 198.2,183.5 192.53,177.83 181.64,177.83 				"/>
			</g>
			<g>
				<polygon class="st0" points="230.96,215.3 226.71,215.3 217.84,224.17 215.53,224.17 215.53,224.69 218.05,224.69 
					226.93,215.82 230.96,215.82 				"/>
				<polygon class="st0" points="230.96,217.61 226.71,217.61 217.84,226.49 215.53,226.49 215.53,227.01 218.05,227.01 
					226.93,218.13 230.96,218.13 				"/>
				<polygon class="st0" points="230.96,219.93 226.71,219.93 217.84,228.8 215.53,228.8 215.53,229.32 218.05,229.32 
					226.93,220.44 230.96,220.44 				"/>
			</g>
			<polygon class="st0" points="185.1,161.13 157.69,161.13 157.69,161.64 184.88,161.64 196.04,172.8 206.69,172.8 206.69,172.29 
				196.26,172.29 			"/>
			<polygon class="st0" points="185.1,157.86 152.25,157.86 152.25,158.38 184.88,158.38 196.04,169.53 212.14,169.53 
				212.14,169.02 196.26,169.02 			"/>
			<polygon class="st0" points="207.15,99.72 196.27,99.72 176.78,119.21 177.14,119.58 196.48,100.24 207.15,100.24 			"/>
			<polygon class="st0" points="207.15,102.47 196.27,102.47 175,123.73 175.37,124.1 196.48,102.98 207.15,102.98 			"/>
			<polygon class="st0" points="207.15,105.21 196.27,105.21 176.38,125.1 176.74,125.47 196.48,105.73 207.15,105.73 			"/>
			<polygon class="st0" points="207.15,107.95 196.27,107.95 180.89,123.33 181.26,123.69 196.48,108.47 207.15,108.47 			"/>
			<polygon class="st0" points="206.99,118.74 197.8,118.74 193.39,123.15 193.75,123.52 198.02,119.25 206.99,119.25 			"/>
			<polygon class="st0" points="206.99,116.01 197.8,116.01 189.31,124.5 183.46,124.5 183.46,125.02 189.52,125.02 198.02,116.53 
				206.99,116.53 			"/>
			<polygon class="st0" points="203.88,113.29 197.8,113.29 189.31,121.78 185.61,121.78 185.61,122.29 189.52,122.29 198.02,113.8 
				203.88,113.8 			"/>
			<polygon class="st0" points="203.88,110.56 197.8,110.56 189.31,119.05 187.64,119.05 187.64,119.57 189.52,119.57 
				198.02,111.08 203.88,111.08 			"/>
		</g>
		<g>
			<path class="st0" d="M143.64,147.57v-2.55h8.03c0,0,0,6.18,0,6.3l-4.3-0.02L143.64,147.57z"/>
			<rect x="179.3" y="207.02" class="st0" width="7.48" height="2.8"/>
			<polygon class="st0" points="133.84,196.12 133.84,199.9 130.59,203.15 125,203.15 125,196.12 			"/>
			<polygon class="st0" points="167.39,217.36 164.15,220.61 158.56,220.61 158.56,213.58 167.39,213.58 			"/>
			<polygon class="st0" points="215.08,77.55 189.1,77.55 178.4,88.25 178.4,89.24 172.98,94.66 157.65,94.66 157.65,86.92 
				176.76,86.92 189.61,74.07 207.75,74.07 216.52,65.31 226.05,65.31 226.05,72.96 219.67,72.96 			"/>
			<polygon class="st0" points="180.89,141.93 175.36,136.4 154.42,136.4 154.42,123.21 182.19,123.21 182.19,130.35 178.09,134.44 
				180.95,137.29 194.74,137.29 205.89,148.44 225.91,148.44 225.91,155.07 206.04,155.07 192.9,141.93 			"/>
			<polygon class="st0" points="226.44,253.35 209.86,236.77 209.86,229.46 227.1,246.7 			"/>
			<polygon class="st0" points="128.84,166.84 186.44,166.84 194.71,175.11 181.85,175.11 177.22,170.49 128.84,170.49 			"/>
		</g>
		<g>
			<polygon class="st0" points="150.47,146.22 144.85,146.22 144.85,147.07 147.87,150.09 150.47,150.11 			"/>
			<rect x="180.51" y="208.23" class="st0" width="5.07" height="0.38"/>
			<polygon class="st0" points="130.1,201.94 132.64,199.4 132.64,197.32 126.21,197.32 126.21,201.94 			"/>
			<polygon class="st0" points="163.65,219.41 166.19,216.86 166.19,214.78 159.76,214.78 159.76,219.41 			"/>
			<path class="st0" d="M158.86,93.45v-5.32h18.34v0.61l-4.71,4.71H158.86z M189.04,76.35l1.07-1.07h18.14l8.76-8.76h7.83v5.25
				h-5.67l-4.59,4.59h-25.54L189.04,76.35L189.04,76.35z"/>
			<polygon class="st0" points="224.7,153.86 224.7,149.64 205.39,149.64 194.25,138.5 180.45,138.5 176.39,134.44 180.98,129.85 
				180.98,124.42 155.62,124.42 155.62,135.2 175.86,135.2 181.39,140.73 193.4,140.73 206.54,153.86 			"/>
			<polygon class="st0" points="225.84,247.15 211.06,232.37 211.06,236.27 225.49,250.7 			"/>
			<polygon class="st0" points="185.94,168.05 130.05,168.05 130.05,169.28 177.72,169.28 182.35,173.91 191.8,173.91 			"/>
		</g>
		<polygon class="st0" points="163.52,185.75 169.43,191.86 183.04,191.86 176.93,185.75 		"/>
		<polygon class="st0" points="211.25,208.54 211.53,208.27 191.87,188.61 178.04,188.61 178.04,189 191.71,189 		"/>
		<polygon class="st0" points="176.92,48.98 187.3,38.59 187.03,38.32 176.64,48.71 		"/>
		<polygon class="st0" points="180.01,48.98 190.4,38.59 190.13,38.32 179.74,48.71 		"/>
		<polygon class="st0" points="183.11,48.98 193.5,38.59 193.23,38.32 182.84,48.71 		"/>
		<polygon class="st0" points="186.21,48.98 196.6,38.59 196.32,38.32 185.94,48.71 		"/>
		<polygon class="st0" points="159.23,88.57 159.61,88.57 159.61,79.64 175.18,64.07 174.91,63.8 159.23,79.48 		"/>
		<polygon class="st0" points="141.23,86.28 154.59,86.28 154.59,78.12 163.91,68.8 163.63,68.52 154.2,77.95 154.2,85.89 
			141.23,85.89 		"/>
		<polygon class="st0" points="149.9,83.5 150.29,83.5 150.29,78.04 158.1,70.23 157.82,69.95 149.9,77.88 		"/>
		<polygon class="st0" points="194.47,72.19 205.9,60.77 227.72,60.77 227.72,60.38 205.73,60.38 194.2,71.92 		"/>
		<polygon class="st0" points="199.04,72.19 207.94,63.29 207.67,63.01 198.77,71.92 		"/>
		<polygon class="st0" points="203.61,72.19 212.45,63.35 234.27,63.35 234.27,62.96 212.29,62.96 203.34,71.92 		"/>
		<path class="st0" d="M92.02,223.15h15.21v-0.39H92.02c-5.73,0-9.42-3.13-10.97-9.3c-0.65-2.6-0.13-4.05,0.39-5.46
			c0.28-0.76,0.54-1.48,0.59-2.34c0.01-0.2,0.03-0.4,0.04-0.59c0.16-2.2,0.31-4.27-2.13-5.83c-1.38-0.88-2.09-1.82-2.13-2.8
			c-0.04-1.26,1.06-2.22,1.54-2.57c0.8-0.59,0.87-1.12,0.79-1.46c-0.16-0.71-1.15-1.29-2.64-1.56c-0.47-0.08-0.8-0.32-1.03-0.72
			c-0.61-1.07-0.33-3.27,0.77-6.17c0.33-0.86,1.26-3.85-0.49-6.07c-1.27-1.61-2.63-2.22-4.51-3.07c-0.58-0.26-1.24-0.56-1.96-0.91
			c-0.29-0.14-0.58-0.28-0.86-0.42c-2.8-1.35-5.21-2.51-5.09-5.98c0.1-2.7,2.65-6.21,5.12-9.6c1.1-1.51,2.24-3.07,3.15-4.55
			c2.69-4.35,5.81-10.19,6.28-12.45c0.36-1.71,0.38-3.63,0.41-5.85c0.01-1.11,0.03-2.26,0.09-3.48c0.04-0.78,0.07-1.53,0.1-2.25
			c0.1-2.24,0.19-4.36,0.36-6.86c0.32-4.79,1.12-12.12,4.43-20.54c3.84-9.76,9.86-18.21,12.27-21.4c3.98-5.25,9.58-9.89,11.81-11.63
			c5.01-3.94,14.35-11.26,29.4-11.26h12.02v-0.39h-12.02c-15.18,0-24.59,7.38-29.64,11.35c-2.24,1.76-7.88,6.41-11.88,11.7
			c-2.42,3.2-8.46,11.69-12.32,21.49c-3.33,8.47-4.14,15.84-4.46,20.65c-0.16,2.5-0.26,4.62-0.36,6.87
			c-0.03,0.73-0.07,1.47-0.1,2.25c-0.06,1.23-0.07,2.38-0.09,3.5c-0.03,2.2-0.05,4.1-0.4,5.77c-0.45,2.14-3.52,7.95-6.23,12.33
			c-0.91,1.47-2.04,3.03-3.14,4.53c-2.51,3.44-5.1,7-5.2,9.82c-0.13,3.72,2.51,4.99,5.31,6.34c0.28,0.14,0.57,0.27,0.86,0.42
			c0.72,0.36,1.38,0.65,1.97,0.92c1.84,0.82,3.16,1.42,4.37,2.95c1.63,2.06,0.74,4.88,0.43,5.7c-1.16,3.06-1.42,5.31-0.75,6.5
			c0.28,0.5,0.72,0.81,1.3,0.91c1.29,0.23,2.2,0.73,2.33,1.27c0.1,0.41-0.3,0.8-0.65,1.06c-0.53,0.39-1.74,1.45-1.69,2.9
			c0.04,1.12,0.81,2.16,2.31,3.12c2.25,1.43,2.11,3.31,1.95,5.47c-0.01,0.2-0.03,0.4-0.04,0.6c-0.05,0.8-0.3,1.5-0.57,2.23
			c-0.51,1.39-1.08,2.97-0.4,5.69C82.25,219.83,86.17,223.15,92.02,223.15z"/>
	</g>
	<g>
		<g>
			<path class="st0" d="M353.82,403.64c2.09,12.91,4.12,25.45,6.47,39.97c-20.9,13.04-44.7,14.58-68.68,4.17
				c-36.05-15.64-53.36-54.23-42.53-91.86c10.21-35.48,45.53-58.46,82.61-53.75c37.95,4.82,65.67,35.97,66.3,75.17
				c0.4,25.07,0.07,50.14,0.07,75.11c-20.05,1.57-34.9-12.89-35.62-34.19c-0.49-14.52,0.44-29.11-0.44-43.6
				c-1.37-22.67-22.25-39.4-44.81-36.82c-21.75,2.5-37.92,23.39-35.05,45.31c3.88,29.71,38.44,44.87,62.97,27.57
				C348.2,408.55,351,405.95,353.82,403.64z"/>
			<path class="st0" d="M397.98,283.3c-0.18,10.58-8.4,18.49-18.95,18.26c-10.3-0.23-18.42-8.76-18.23-19.15
				c0.19-10.13,9.04-18.58,19.14-18.27C390.53,264.46,398.16,272.57,397.98,283.3z"/>
		</g>
		<path class="st0" d="M397.46,308.67h-31.44c0,0,27.56,12.24,31.44,29.19V308.67z"/>
		<g>
			<path class="st0" d="M502.99,492.73c0,0.95-0.49,1.84-1.3,2.33c-16.37,9.88-37.03,17.9-61.99,24.06
				c-25.62,6.32-51.62,9.49-78.01,9.49c-59.75,0-106.3-14.28-139.66-42.85C188.68,457.19,172,419.47,172,372.6
				c0-25.95,5.89-48.9,17.66-68.85c11.11-18.83,26.41-34.7,45.88-47.61c1.6-1.06,1.62-3.38,0.06-4.48
				c-7.8-5.52-16.3-14.92-25.5-28.2c-10.58-15.26-15.86-31.94-15.86-50.04c0-38.16,12.15-69.12,36.47-92.89
				c24.31-23.76,55.87-35.65,94.69-35.65c15.91,0,30.91,1.36,44.97,4.09c11.03,2.14,18.46,3.57,22.32,4.3
				c1.38,0.26,2.37,1.46,2.37,2.87v56.15c0,1.61-1.31,2.92-2.92,2.92l0,0c-0.23,0-0.46-0.03-0.69-0.09
				c-5.7-1.51-14.79-3.5-27.3-5.96c-12.76-2.5-24.81-3.76-36.14-3.76c-25.73,0-45.46,6.49-59.2,19.46
				c-13.74,12.98-20.61,29.71-20.61,50.21c0,11.56,3.92,22.79,11.77,33.69c7.5,10.43,15.11,17.76,22.81,22
				c0.67,0.37,1.48,0.42,2.2,0.16l119.13-42.46c17.43-6.21,35.75,6.71,35.75,25.21l0,0c0,11.36-7.17,21.48-17.89,25.25
				l-120.79,42.45c-25.08,8.72-43.83,21.1-56.26,37.12c-12.43,16.03-18.64,33.85-18.64,53.48c0,28.78,11.99,52.06,35.98,69.83
				c23.98,17.77,56.8,26.66,98.45,26.66c22.9,0,47.97-4.53,75.23-13.57c26.83-8.91,47.75-18.82,62.75-29.74
				c0.46-0.34,1.01-0.52,1.59-0.52l0,0c1.5,0,2.72,1.22,2.72,2.72v65.38L502.99,492.73L502.99,492.73z"/>
		</g>
	</g>
</g>
</svg>
